<svg xmlns="http://www.w3.org/2000/svg" fill="none" viewBox="0 0 512 133">
  <path fill-rule="evenodd" clip-rule="evenodd" d="M110.293 20.379H36.024v37.238h36.544a2.359 2.359 0 012.358 2.358v36.04h37.725V22.74a2.356 2.356 0 00-2.358-2.362z" fill="#D1D1D6"/>
  <path opacity=".405" fill-rule="evenodd" clip-rule="evenodd" d="M36.02 20.379v37.238H1.18a1.181 1.181 0 01-.829-2.022l35.67-35.216zm40.915 110.89a1.183 1.183 0 01-2.009-.841V96.014h37.725l-35.716 35.251v.004z" fill="#D1D1D6"/>
  <path opacity=".405" fill-rule="evenodd" clip-rule="evenodd" d="M36.02 57.617h37.73c.646 0 1.176.525 1.176 1.176v37.221H38.382a2.358 2.358 0 01-2.357-2.358v-36.04h-.005z" fill="#D1D1D6"/>
  <path fill-rule="evenodd" clip-rule="evenodd" d="M493.07 18.03c2.108 2.086 4.596 3.125 7.467 3.125 2.962 0 5.496-1.04 7.605-3.126 2.108-2.086 3.159-4.543 3.159-7.384 0-2.837-1.051-5.32-3.159-7.45a10.318 10.318 0 00-7.605-3.194c-2.871 0-5.359 1.065-7.467 3.19-2.108 2.134-3.159 4.613-3.159 7.458 0 2.837 1.051 5.294 3.159 7.38zM264.332 45.24a.402.402 0 01-.401.397h-14.808v27.676c0 2.306.586 3.992 1.75 5.056 1.164 1.065 2.871 1.66 5.113 1.794 2.052.125 4.552.116 7.505-.022l.418-.021a.397.397 0 01.419.396v14.791a.397.397 0 01-.354.397l-.271.03c-11.597 1.22-19.801.086-24.603-3.397-4.889-3.548-7.329-9.89-7.329-19.024V45.637h-11.312a.396.396 0 01-.396-.397V29.535c0-.215.177-.396.396-.396h11.308v-10.98c0-.32.19-.604.479-.733l16.321-7.1a.396.396 0 01.56.362v18.45h14.804c.216 0 .397.177.397.397V45.24h.004zm31.47-4.656c1.612-4.26 4.281-7.454 8.001-9.583a24.356 24.356 0 0112.045-3.19.4.4 0 01.401.4v18.042a.645.645 0 01-.712.642c-5.005-.448-9.501.643-13.484 3.268-4.169 2.746-6.251 7.316-6.251 13.705v31.4a.398.398 0 01-.401.397h-16.563a.396.396 0 01-.396-.397V29.531c0-.216.176-.397.396-.397h16.563c.215 0 .396.177.396.397v11.044l.005.01zm82.063-11.445a.395.395 0 00-.401.396v7.458c-5.199-6.48-12.51-9.717-21.93-9.717-8.967 0-16.662 3.393-23.072 10.178-6.415 6.786-9.622 15.102-9.622 24.948s3.207 18.162 9.622 24.947c6.41 6.786 14.105 10.178 23.072 10.178 9.42 0 16.727-3.237 21.93-9.712v7.453c0 .216.181.397.401.397h16.558a.4.4 0 00.401-.397V29.531a.394.394 0 00-.401-.397h-16.558v.005zm-32.418 46.834c3.496 3.461 7.932 5.19 13.32 5.19 5.38 0 9.842-1.754 13.386-5.26 3.543-3.5 5.311-8 5.311-13.501 0-5.5-1.768-10.002-5.311-13.506-3.544-3.5-8.006-5.255-13.39-5.255-5.38 0-9.82 1.754-13.321 5.259-3.492 3.5-5.246 8.001-5.246 13.502 0 5.5 1.75 10.023 5.251 13.57zm126.526-38.519c-6.415-6.785-14.153-10.178-23.21-10.178-9.42 0-16.684 3.238-21.797 9.713v-7.454a.396.396 0 00-.396-.396h-16.563a.396.396 0 00-.396.396v92.341c0 .219.176.4.396.4h16.563a.402.402 0 00.396-.4V87.815c5.113 6.475 12.377 9.712 21.797 9.712 9.057 0 16.795-3.392 23.21-10.178 6.41-6.785 9.617-15.101 9.617-24.947 0-9.846-3.207-18.162-9.617-24.948zm-39.76 38.519c3.5 3.461 7.936 5.19 13.321 5.19 5.38 0 9.842-1.754 13.385-5.26 3.544-3.5 5.316-8 5.316-13.501 0-5.5-1.772-10.002-5.316-13.506-3.543-3.5-8.005-5.255-13.385-5.255-5.385 0-9.821 1.754-13.321 5.259-3.496 3.5-5.247 8.001-5.247 13.502 0 5.5 1.751 10.023 5.247 13.57zm60.112 19.692a.397.397 0 01-.397-.397V29.531c0-.216.177-.397.397-.397h16.562c.22 0 .397.177.397.397v65.742a.396.396 0 01-.397.396h-16.562v-.004zM182.864 52.357c-2.38-1.108-3.565-2.552-3.565-4.324 0-1.685.737-3.017 2.22-3.992 1.478-.974 3.341-1.465 5.582-1.465 4.298 0 7.545 1.66 9.743 4.975a.573.573 0 00.703.215l14.648-6.41a.398.398 0 00.181-.56 34.74 34.74 0 00-.517-.837c-2.504-3.901-5.751-6.811-9.824-9.023-4.484-2.44-9.463-3.66-14.934-3.66-7.268 0-13.342 1.884-18.235 5.656-4.884 3.768-7.328 8.937-7.328 15.498 0 4.35 1.189 7.962 3.565 10.846a20.976 20.976 0 008.678 6.32 90.994 90.994 0 0010.225 3.324c3.406.888 6.303 1.888 8.678 2.996 2.375 1.108 3.565 2.548 3.565 4.324 0 3.815-3.095 5.72-9.281 5.72-5.893 0-9.976-2.155-12.248-6.457a.797.797 0 00-1.026-.375l-14.605 6.401a.396.396 0 00-.198.534l.163.333c5.105 10.088 14.408 15.131 27.914 15.131 7.712 0 14.148-1.84 19.304-5.518 5.16-3.686 7.738-8.94 7.738-15.77 0-4.526-1.189-8.293-3.565-11.311a19.829 19.829 0 00-8.678-6.45 90.488 90.488 0 00-10.225-3.194c-3.41-.844-6.303-1.819-8.678-2.931v.004z" fill="#D1D1D6"/>
</svg>
