<svg xmlns="http://www.w3.org/2000/svg" fill="none" viewBox="0 0 512 105">
  <g clip-path="url(#yDXV5Rugoa)">
    <path d="M92.384 56.139l.068.005 7.077.74c.497.053.953.296 1.275.675l.053.064-.068.034c.331.417.477.952.404 1.48a52.717 52.717 0 01-16.456 32.072 50.97 50.97 0 01-34.662 13.598 50.405 50.405 0 01-18.257-3.389l-.317-.124a1.864 1.864 0 01-1.062-1.001l-.03-.074a1.936 1.936 0 01-.034-1.448l2.794-6.815a1.917 1.917 0 012.42-1.108l.064.024a40.056 40.056 0 0041.67-8 41.317 41.317 0 0013.01-25.047 1.95 1.95 0 011.983-1.69l.068.004zM259.52 27.215c6.034 0 10.753 1.841 13.767 5.377l.101.12V29.72a1.68 1.68 0 011.513-1.592l.067-.005h8.052c.828.057 1.487.71 1.559 1.53l.004.067v44.696a27.219 27.219 0 01-5.48 17.532c-4.337 5.279-10.926 7.951-19.583 7.951-12.035 0-21.533-7.615-23.096-18.49a1.68 1.68 0 011.144-1.762l.066-.02 7.867-1.85c.041-.008.082-.016.124-.022a1.58 1.58 0 011.792 1.334 11.902 11.902 0 0012.103 10.506c9.303 0 13.679-4.728 13.766-14.61l.001-.3v-3.917a17.667 17.667 0 01-13.767 5.9c-13.38 0-23.079-10.388-23.079-24.676a26 26 0 016.354-17.532 22.17 22.17 0 0116.725-7.245zM17.198 81.576h.2a5.9 5.9 0 015.833 5.835v.1l-.001.1a5.934 5.934 0 11-6.032-6.035zm381.699-54.983l.413.003c14.384.199 23.296 10.211 23.296 26.237 0 .848-.046 1.695-.136 2.538a1.558 1.558 0 01-1.478 1.41l-.067.002h-34.191c.211 7.18 6.147 12.862 13.332 12.758a11.986 11.986 0 0012.236-8.539 1.58 1.58 0 011.903-.96l.063.019 6.824 2.404c.378.12.686.388.86.74l.031.066c.188.37.219.8.087 1.194a22.512 22.512 0 01-22.004 15.296 24.286 24.286 0 01-17.348-7.043 27.123 27.123 0 01-7.447-19.684c0-16.391 11.781-26.242 23.284-26.438l.342-.003zm-193.469 0h.017c14.641 0 23.735 10.052 23.735 26.24a24.451 24.451 0 01-.135 2.538 1.545 1.545 0 01-1.481 1.41l-.065.002h-34.19c.21 7.2 6.177 12.89 13.38 12.758a11.967 11.967 0 0012.237-8.539 1.563 1.563 0 011.903-.961l.064.02 6.824 2.404c.399.128.724.422.891.806.16.382.16.812 0 1.194a22.507 22.507 0 01-21.986 15.296 24.29 24.29 0 01-17.381-7.043 27.197 27.197 0 01-7.447-19.684c0-16.557 12.019-26.44 23.634-26.44zm-51.773-.017c6.572 0 11.884 1.597 15.818 4.74a17.2 17.2 0 015.665 8.22l.003.014a1.076 1.076 0 01-.738 1.283l-.055.014-8.153 2.69a1.528 1.528 0 01-1.126 0 1.195 1.195 0 01-.639-.74l-.043-.16c-.743-2.654-3.171-6.916-10.732-6.916-5.379 0-8.606 3.093-8.606 6.085l.001.118c.04 1.946 1.098 4.388 5.737 5.316l.145.029 8.976 1.68c9.918 1.998 15.635 7.388 15.749 14.9l.001.23-.033-.135-.002.228c-.144 7.53-7.429 15.455-20.842 15.455-15.716 0-21.885-8.892-23.029-14.137a1.128 1.128 0 01.784-1.228l.057-.016 8.405-2.622c.15-.025.303-.025.453 0 .214-.004.425.041.618.132l.072.036c.308.148.536.425.621.756 1.06 5.043 5.615 8.052 12.171 8.052 6.101 0 8.875-3.194 8.875-6.085 0-2.86-2.417-4.979-6.584-5.854l-.14-.03-9.43-1.831c-8.791-1.664-14.271-7.128-14.271-14.238 0-8.657 9.296-15.986 20.272-15.986zm339.014-14.002h7.346a1.681 1.681 0 011.578 1.616l.002.065v13.8h8.839c.861.061 1.532.76 1.565 1.616l.001.066v7.328l-.001.064a1.582 1.582 0 01-1.499 1.531l-.066.002h-8.839v24.525c0 4.068 1.611 5.75 5.763 5.75a21.568 21.568 0 002.514-.192l.312-.044a1.56 1.56 0 011.277.353c.317.294.507.699.535 1.13l.004.08v6.909a1.583 1.583 0 01-1.127 1.53 21.859 21.859 0 01-5.945.809l-.274-.003c-8.772 0-14.245-5.585-14.354-14.618l-.001-.275V38.763h-7.649a1.681 1.681 0 01-1.576-1.53l-.004-.067v-7.362a1.68 1.68 0 011.515-1.676l.065-.005h2.056l.219-.004c2.401-.07 6.087-1.042 6.162-6.4l.002-.169v-7.295a1.68 1.68 0 011.515-1.676l.065-.005zM349.897 26.586l.193.007h-.017c8.654 0 17.39 6.03 17.564 19.198l.002.402v31.131a1.68 1.68 0 01-1.512 1.592l-.068.005h-8.052a1.682 1.682 0 01-1.575-1.53l-.005-.067V47.202l-.002-.233c-.049-3.838-1.353-10.005-9.259-10.005-5.842 0-10.004 4.548-10.086 11.163l-.002.2v28.997a1.678 1.678 0 01-1.512 1.592l-.068.005h-8.15a1.68 1.68 0 01-1.576-1.53l-.004-.067V47.202l-.002-.233c-.049-3.838-1.353-10.005-9.262-10.005-6.073 0-10.186 4.515-10.268 11.26l-.001.205v28.895a1.683 1.683 0 01-1.513 1.592l-.067.005h-8.053a1.681 1.681 0 01-1.558-1.53l-.004-.067V29.619a1.68 1.68 0 011.496-1.591l.066-.006h7.75a1.681 1.681 0 011.576 1.53l.004.067v2.874a18.1 18.1 0 0113.614-5.9 16.084 16.084 0 0114.508 8.22 18.207 18.207 0 0115.843-8.227zm120.566 5.94a22.228 22.228 0 014.511 14.157l-.008.216v30.425a1.68 1.68 0 01-1.496 1.591l-.066.006h-8.151a1.683 1.683 0 01-1.578-1.53l-.005-.067V48.53c0-7.531-3.546-11.364-10.269-11.364a9.35 9.35 0 00-7.649 3.564 14.741 14.741 0 00-2.626 8.742l.005.184v27.668a1.683 1.683 0 01-1.513 1.592l-.067.005h-8.136a1.682 1.682 0 01-1.576-1.53l-.004-.067V29.585a1.68 1.68 0 011.513-1.591l.067-.006h7.951c.829.057 1.487.71 1.559 1.53l.004.067v3.362a17.498 17.498 0 0113.885-6.354 17.01 17.01 0 0113.649 5.934zM1.95 58.179h57.875c1.063.01 1.923.86 1.95 1.916v7.313a1.967 1.967 0 01-1.883 1.981l-.067.002H1.95A1.968 1.968 0 010 67.474v-7.38a1.968 1.968 0 011.88-1.914l.07-.002zm258.966-20.91c-7.934 0-12.977 5.647-12.977 14.724S252.915 66.7 260.916 66.7c7.632 0 12.775-5.916 12.775-14.708 0-8.808-5.143-14.725-12.775-14.725zm-67.25 9.82l-.021.18h23.92c-.583-6.39-5.086-10.374-11.831-10.453l-.205-.002a11.767 11.767 0 00-11.839 10.098l-.024.177zm193.493 0l-.021.18h23.921c-.582-6.39-5.087-10.374-11.832-10.453l-.205-.002a11.768 11.768 0 00-11.839 10.098l-.024.177zM67.069 2.892c.502.18.908.557 1.127 1.042.2.49.2 1.04 0 1.53l-2.521 6.723a1.916 1.916 0 01-2.438 1.177 40.04 40.04 0 00-38.661 6.909 41.638 41.638 0 00-13.65 21.751 1.95 1.95 0 01-1.882 1.463h-.438l-6.925-1.665a1.933 1.933 0 01-1.227-.907H.42a1.95 1.95 0 01-.218-1.53 52.763 52.763 0 0117.566-27.77A50.95 50.95 0 0167.07 2.893zM41.436 31.939H99.31a1.966 1.966 0 011.947 1.847l.003.069V41.1a1.967 1.967 0 01-1.882 1.982l-.068.001H41.435a1.967 1.967 0 01-1.932-1.915v-7.246a1.966 1.966 0 011.864-1.981l.068-.002zM81.612 9.834h.2a5.9 5.9 0 015.832 5.834v.2a5.934 5.934 0 11-6.032-6.034z" fill="#D1D1D6"/>
  </g>
  <defs>
    <clipPath id="yDXV5Rugoa">
      <path fill="#fff" d="M0 0h512v105H0z"/>
    </clipPath>
  </defs>
</svg>
